<svg xmlns="http://www.w3.org/2000/svg" xmlns:xlink="http://www.w3.org/1999/xlink" width="73" height="59" viewBox="0 0 73 59">
  <defs>
    <clipPath id="clip-path">
      <rect id="Rectangle_4742" data-name="Rectangle 4742" width="73" height="59" transform="translate(287 406)" fill="#ddd" stroke="#707070" stroke-width="1"/>
    </clipPath>
  </defs>
  <g id="Mask_Group_8300" data-name="Mask Group 8300" transform="translate(-287 -406)" clip-path="url(#clip-path)">
    <g id="Group_15853" data-name="Group 15853" transform="translate(288.935 408.049)">
      <g id="Group_15852" data-name="Group 15852" transform="translate(0 0)">
        <g id="Group_15854" data-name="Group 15854">
          <path id="Union_27" data-name="Union 27" d="M43.005,69.534a22.18,22.18,0,0,1-20.1-20.205l-.094-1.151,1.147.108a22.151,22.151,0,0,1,20.1,20.205l.094,1.147ZM30.655,61.723A20.247,20.247,0,0,0,42,67.463,20.217,20.217,0,0,0,24.975,50.352,20.25,20.25,0,0,0,30.655,61.723ZM.1,68.49A22.126,22.126,0,0,1,6.468,54.729a22.227,22.227,0,0,1,6.193-4.388,21.958,21.958,0,0,1,7.534-2.056l1.148-.1-.1,1.148a22.074,22.074,0,0,1-2.016,7.539,22.123,22.123,0,0,1-4.357,6.22,22.035,22.035,0,0,1-6.193,4.383,22.085,22.085,0,0,1-7.53,2.062L0,69.637Zm7.741-12.4a20.249,20.249,0,0,0-5.68,11.368A20.258,20.258,0,0,0,13.5,61.723a20.279,20.279,0,0,0,5.68-11.371A20.228,20.228,0,0,0,7.841,56.094ZM22.909,45.589a22.161,22.161,0,0,1,20.1-20.2l1.148-.1-.094,1.147a22.156,22.156,0,0,1-20.1,20.2l-1.147.1ZM30.655,33.2a20.233,20.233,0,0,0-5.68,11.368A20.235,20.235,0,0,0,41.992,27.46,20.249,20.249,0,0,0,30.655,33.2ZM20.195,46.633A22.153,22.153,0,0,1,.1,26.457a.776.776,0,0,1,0-.1.953.953,0,0,1,.063-.342A1,1,0,0,1,.346,25.7a.985.985,0,0,1,.441-.275.861.861,0,0,1,.243-.036.856.856,0,0,1,.14,0,22.077,22.077,0,0,1,7.507,2.054,22.141,22.141,0,0,1,6.193,4.388,22.1,22.1,0,0,1,4.357,6.216,22.175,22.175,0,0,1,2.016,7.539l.1,1.147Zm-12.354-7.8a20.277,20.277,0,0,0,11.342,5.739A20.287,20.287,0,0,0,13.5,33.2,20.258,20.258,0,0,0,2.161,27.46,20.278,20.278,0,0,0,7.841,38.828Zm60.824,4.132a21.631,21.631,0,0,1-19.709-19.62l-.05-.576.572.049A21.617,21.617,0,0,1,69.2,42.425a.213.213,0,0,1,0,.055.4.4,0,0,1-.032.166.438.438,0,0,1-.1.163.488.488,0,0,1-.2.13.614.614,0,0,1-.153.027A.218.218,0,0,1,68.664,42.961ZM48.956,19.673A21.635,21.635,0,0,1,68.678.049L69.25,0,69.2.576a21.659,21.659,0,0,1-2.008,7.349,21.614,21.614,0,0,1-4.285,6.05,21.567,21.567,0,0,1-6.067,4.247A21.512,21.512,0,0,1,49.478,20.2l-.572.049Zm-3.133.523a21.562,21.562,0,0,1-7.354-1.973A21.574,21.574,0,0,1,32.4,13.976a21.614,21.614,0,0,1-4.285-6.05A21.667,21.667,0,0,1,26.109.576L26.059,0l.572.049A21.611,21.611,0,0,1,46.35,19.66a.238.238,0,0,1,0,.055.468.468,0,0,1-.027.157.413.413,0,0,1-.117.185.516.516,0,0,1-.342.143A.155.155,0,0,1,45.823,20.2Z" fill="#ddd"/>
        </g>
      </g>
    </g>
  </g>
</svg>
