<svg xmlns="http://www.w3.org/2000/svg" width="16.528" height="15.15" viewBox="0 0 16.528 15.15">
  <path id="icons8-sales_performance" d="M16.051,5a7.3,7.3,0,0,0-2.97.56,3.167,3.167,0,0,0-1.033.71,1.7,1.7,0,0,0-.473,1.141v3.034c-.043-.022-.083-.043-.129-.065a7.3,7.3,0,0,0-2.97-.56,7.3,7.3,0,0,0-2.97.56,3.167,3.167,0,0,0-1.033.71A1.7,1.7,0,0,0,4,12.231V17.74a1.692,1.692,0,0,0,.495,1.141,3.2,3.2,0,0,0,1.033.71,7.3,7.3,0,0,0,2.948.56,7.3,7.3,0,0,0,2.948-.56,3.2,3.2,0,0,0,1.033-.71,1.692,1.692,0,0,0,.495-1.141v-.3c.054.027.094.062.151.086a7.3,7.3,0,0,0,2.948.56A7.3,7.3,0,0,0,19,17.525a3.2,3.2,0,0,0,1.033-.71,1.692,1.692,0,0,0,.495-1.141V7.41a1.7,1.7,0,0,0-.473-1.141,3.167,3.167,0,0,0-1.033-.71A7.3,7.3,0,0,0,16.051,5Zm0,1.377a6.017,6.017,0,0,1,2.389.452,2.018,2.018,0,0,1,.6.387c.108.116.108.161.108.194s0,.078-.108.194a2.018,2.018,0,0,1-.6.387,6.017,6.017,0,0,1-2.389.452,6.017,6.017,0,0,1-2.389-.452,2.018,2.018,0,0,1-.6-.387c-.108-.116-.108-.161-.108-.194s0-.078.108-.194a2.018,2.018,0,0,1,.6-.387A6.017,6.017,0,0,1,16.051,6.377ZM12.953,9.2c.043.022.083.043.129.065a7.3,7.3,0,0,0,2.97.56,7.3,7.3,0,0,0,2.97-.56c.046-.022.086-.043.129-.065v.968c0,.035,0,.1-.108.215a1.982,1.982,0,0,1-.6.387,6.158,6.158,0,0,1-2.389.43,6.158,6.158,0,0,1-2.389-.43,1.982,1.982,0,0,1-.6-.387c-.108-.116-.108-.18-.108-.215Zm-4.476,2a6.017,6.017,0,0,1,2.389.452,2.018,2.018,0,0,1,.6.387c.108.116.108.161.108.194s0,.078-.108.194a2.018,2.018,0,0,1-.6.387,6.017,6.017,0,0,1-2.389.452,6.017,6.017,0,0,1-2.389-.452,2.018,2.018,0,0,1-.6-.387c-.108-.116-.108-.161-.108-.194s0-.078.108-.194a2.018,2.018,0,0,1,.6-.387A6.017,6.017,0,0,1,8.476,11.2Zm4.476.732c.054.027.094.062.151.086a7.3,7.3,0,0,0,2.948.56A7.3,7.3,0,0,0,19,12.016c.056-.024.1-.059.151-.086v.99c0,.035,0,.1-.108.215a1.982,1.982,0,0,1-.6.387,6.158,6.158,0,0,1-2.389.43,6.158,6.158,0,0,1-2.389-.43,1.982,1.982,0,0,1-.6-.387c-.108-.116-.108-.18-.108-.215ZM5.377,14.017c.043.022.083.043.129.065a7.3,7.3,0,0,0,2.97.56,7.3,7.3,0,0,0,2.97-.56c.046-.022.086-.043.129-.065v.968c0,.035,0,.1-.108.215a1.982,1.982,0,0,1-.6.387,6.159,6.159,0,0,1-2.389.43,6.158,6.158,0,0,1-2.389-.43,1.982,1.982,0,0,1-.6-.387c-.108-.116-.108-.18-.108-.215Zm7.575.667c.054.027.094.062.151.086a7.3,7.3,0,0,0,2.948.56A7.3,7.3,0,0,0,19,14.77c.056-.024.1-.059.151-.086v.99c0,.035,0,.1-.108.215a1.982,1.982,0,0,1-.6.387,6.158,6.158,0,0,1-2.389.43,6.158,6.158,0,0,1-2.389-.43,1.982,1.982,0,0,1-.6-.387c-.108-.116-.108-.18-.108-.215ZM5.377,16.75c.054.027.094.062.151.086a7.3,7.3,0,0,0,2.948.56,7.3,7.3,0,0,0,2.948-.56c.056-.024.1-.059.151-.086v.99c0,.035,0,.1-.108.215a1.982,1.982,0,0,1-.6.387,6.159,6.159,0,0,1-2.389.43,6.159,6.159,0,0,1-2.389-.43,1.982,1.982,0,0,1-.6-.387c-.108-.116-.108-.18-.108-.215Z" transform="translate(-4 -5)" fill="#0c8e74"/>
</svg>
