<svg xmlns="http://www.w3.org/2000/svg" width="16.082" height="10.051" viewBox="0 0 16.082 10.051">
  <path id="icons8-gold_bars" d="M6.015,6l-.11.346L5.057,8.858l-.031.079v.079H3.5l-.11.346-.848,2.513-.031.079v.079H.989l-.11.346L.031,14.889,0,14.968v1.084H16.082V14.968l-.031-.079L15.2,12.376l-.11-.346H13.569v-.079l-.031-.079L12.69,9.361l-.11-.346H11.056V8.937l-.031-.079-.848-2.513L10.067,6Zm.722,1.005H9.344l.691,2.01H6.046ZM4.225,10.02H6.832l.691,2.01H3.534Zm3.659,0H8.2l-.157.455Zm1.366,0h2.607l.691,2.01H8.559ZM1.712,13.036H4.319l.691,2.01H1.021Zm3.659,0h.314l-.157.455Zm1.366,0H9.344l.691,2.01H6.046Zm3.659,0h.314l-.157.455Zm1.366,0H14.37l.691,2.01H11.072Z" transform="translate(0 -6)" fill="#0c8e74"/>
</svg>
