<svg xmlns="http://www.w3.org/2000/svg" width="16.082" height="13.36" viewBox="0 0 16.082 13.36">
  <path id="icons8-increase" d="M14.915,4.219,14.7,5.426l1.246.211L13.324,7.286l-.633-.671-.383-.4-.441.326L8.723,8.857l-.537-.537-.383-.4-.422.345-4.6,3.68.767.958L7.707,9.567l.537.537.383.364.422-.307,3.105-2.319.613.652.345.364.441-.268L16.7,6.615l-.326,1.38,1.188.288.671-2.837.153-.633L17.732,4.7Zm2.722,4.773v8.587h1.227V8.992Zm-2.454,1.227v7.361H16.41V10.218Zm-2.454,1.227v6.134h1.227V11.445Zm-2.454,1.227v4.907H11.5V12.672ZM7.822,13.9v3.68H9.049V13.9ZM5.369,15.125v2.454H6.6V15.125ZM2.915,16.352v1.227H4.142V16.352Z" transform="translate(-2.781 -4.219)" fill="#0c8e74"/>
</svg>
